<svg id="Capa_1" enable-background="new 0 0 512 512" height="512" viewBox="0 0 512 512" width="512" xmlns="http://www.w3.org/2000/svg"><g><g><path d="m10 26h492v320h-492z" fill="#eefaff"/><path d="m396 346v40c-13.4 0-260.385 0-280 0v-40z" fill="#fff2a0"/><g fill="#ff9256"><circle cx="76" cy="146" r="20"/><circle cx="136" cy="246" r="20"/><circle cx="196" cy="166" r="20"/><path d="m416 166v140h-40v-100z"/><path d="m336 206v100h-40v-60z"/></g><path d="m336 206h40v100h-40z" fill="#aaf9dd"/><path d="m296 246v60h-40v-100z" fill="#aaf9dd"/></g><g><path d="m76 316c5.523 0 10-4.478 10-10v-131.72c11.639-4.128 20-15.243 20-28.28s-8.361-24.152-20-28.28v-51.72c0-5.522-4.477-10-10-10s-10 4.478-10 10v51.72c-11.639 4.128-20 15.243-20 28.28s8.361 24.152 20 28.28v131.72c0 5.522 4.477 10 10 10zm0-180c5.514 0 10 4.486 10 10s-4.486 10-10 10-10-4.486-10-10 4.486-10 10-10z"/><path d="m136 316c5.523 0 10-4.478 10-10v-31.72c11.639-4.128 20-15.243 20-28.28s-8.361-24.152-20-28.28v-151.72c0-5.522-4.477-10-10-10s-10 4.478-10 10v151.72c-11.639 4.128-20 15.243-20 28.28s8.361 24.152 20 28.28v31.72c0 5.522 4.477 10 10 10zm0-80c5.514 0 10 4.486 10 10s-4.486 10-10 10-10-4.486-10-10 4.486-10 10-10z"/><path d="m196 316c5.523 0 10-4.478 10-10v-111.72c11.639-4.128 20-15.243 20-28.28s-8.361-24.152-20-28.28v-71.72c0-5.522-4.477-10-10-10s-10 4.478-10 10v71.72c-11.639 4.128-20 15.243-20 28.28s8.361 24.152 20 28.28v111.72c0 5.522 4.477 10 10 10zm0-160c5.514 0 10 4.486 10 10s-4.486 10-10 10-10-4.486-10-10 4.486-10 10-10z"/><path d="m246 306c0 5.522 4.478 10 10 10h160c5.522 0 10-4.478 10-10v-135.857l20-20v15.857c0 5.522 4.478 10 10 10s10-4.478 10-10v-39.995c.004-5.427-4.416-10.005-10-10.005h-40c-5.522 0-10 4.478-10 10s4.478 10 10 10h15.857l-60 60h-35.857c-2.724 0-5.298 1.155-7.071 2.929l-32.929 32.928-32.929-32.929c-2.859-2.86-7.161-3.714-10.898-2.168-3.736 1.549-6.173 5.195-6.173 9.24zm140-95.857 20-20v105.857h-20zm-40 5.857h20v80h-20zm-40 34.143 20-20v65.857h-20zm-40-20 20 20v45.857h-20z"/><path d="m296 56c-5.522 0-10 4.478-10 10v11.72c-11.639 4.128-20 15.243-20 28.28 0 16.542 13.458 30 30 30 5.514 0 10 4.486 10 10s-4.486 10-10 10c-3.175 0-6.092-1.46-8.004-4.006-3.317-4.416-9.587-5.308-14.002-1.99-4.416 3.316-5.307 9.586-1.99 14.002 3.575 4.759 8.489 8.298 13.996 10.255v11.739c0 5.522 4.478 10 10 10s10-4.478 10-10v-11.72c11.639-4.128 20-15.243 20-28.28 0-16.542-13.458-30-30-30-5.514 0-10-4.486-10-10s4.486-10 10-10c3.175 0 6.092 1.46 8.004 4.006 3.316 4.416 9.586 5.306 14.002 1.99s5.307-9.586 1.99-14.002c-3.575-4.759-8.489-8.298-13.996-10.255v-11.739c0-5.522-4.478-10-10-10z"/><circle cx="256" cy="26" r="10"/><path d="m502 16h-201c-5.522 0-10 4.478-10 10s4.478 10 10 10h191v300h-472v-300h191c5.523 0 10-4.478 10-10s-4.477-10-10-10h-201c-5.523 0-10 4.478-10 10v320c0 5.522 4.477 10 10 10h96v30c0 5.522 4.477 10 10 10h7.802l-8 40h-19.802c-5.523 0-10 4.478-10 10s4.477 10 10 10h15.802l-4 20h-11.802c-5.523 0-10 4.478-10 10s4.477 10 10 10h20c4.767 0 8.871-3.364 9.806-8.039l6.392-31.961h247.604l6.392 31.961c.935 4.675 5.039 8.039 9.806 8.039h20c5.522 0 10-4.478 10-10s-4.478-10-10-10h-11.802l-4-20h15.802c5.522 0 10-4.478 10-10s-4.478-10-10-10h-19.802l-8-40h7.802c5.522 0 10-4.478 10-10v-30h96c5.522 0 10-4.478 10-10v-320c0-5.522-4.478-10-10-10zm-365.802 420 8-40h223.604l8 40zm249.802-60c-38.307 0-221.725 0-260 0v-20h260z"/></g></g></svg>